<svg width="14" height="14" viewBox="0 0 14 14" fill="none" xmlns="http://www.w3.org/2000/svg">
<path d="M8.29264 0.882451C8.18743 0.619914 8.04665 0.401678 7.81239 0.24319C7.57813 0.0847018 7.30177 0 7.01894 0C6.7361 0 6.45975 0.0847018 6.22549 0.24319C5.99123 0.401678 5.8098 0.626689 5.70458 0.889226L4.51217 3.80249L4.45797 3.84314L1.32113 4.07349C1.13592 4.08591 0.954988 4.1348 0.788726 4.21735C0.622465 4.2999 0.47415 4.41448 0.352302 4.55452C0.126763 4.81397 0.00176099 5.14571 9.94345e-08 5.48948C-7.76227e-05 5.69638 0.0454087 5.90077 0.133228 6.08812C0.221047 6.27547 0.349045 6.44118 0.508128 6.57348L2.91327 8.60599V8.65342L2.18156 11.7361C2.15505 11.8516 2.14141 11.9698 2.14091 12.0884C2.13783 12.2771 2.1742 12.4643 2.24771 12.6382C2.32121 12.812 2.43021 12.9686 2.56774 13.0978C2.79481 13.3202 3.09039 13.4593 3.40648 13.4925C3.72256 13.5257 4.04059 13.4511 4.30892 13.2808L7.01894 11.6209H7.08669L9.72895 13.2808C9.99802 13.4502 10.3165 13.5237 10.6326 13.4893C10.9487 13.4548 11.2439 13.3145 11.4701 13.0911C11.6077 12.9618 11.7167 12.8052 11.7902 12.6314C11.8637 12.4576 11.9 12.2703 11.897 12.0816C11.8968 11.9652 11.8832 11.8493 11.8563 11.7361L11.084 8.66019V8.61277L13.4891 6.58026C13.6349 6.45848 13.7549 6.30873 13.842 6.13984C13.929 5.97094 13.9813 5.78632 13.9958 5.59688C14.0104 5.40743 13.9868 5.217 13.9265 5.03681C13.8663 4.85662 13.7705 4.69033 13.6449 4.54774C13.5231 4.40771 13.3748 4.29312 13.2085 4.21057C13.0422 4.12802 12.8613 4.07914 12.6761 4.06672L9.53925 3.83637L9.48505 3.79572L8.29264 0.882451Z" fill="#FFCE22"/>
</svg>
