<svg width="13" height="12" viewBox="0 0 13 12" fill="none" xmlns="http://www.w3.org/2000/svg">
<path d="M7.37109 0.784385C7.27756 0.551024 7.15243 0.35704 6.9442 0.216164C6.73598 0.075289 6.49033 0 6.23893 0C5.98752 0 5.74188 0.075289 5.53365 0.216164C5.32543 0.35704 5.16416 0.557046 5.07063 0.790407L4.01074 3.37992L3.96256 3.41606L1.17432 3.62081C1.00969 3.63185 0.848861 3.6753 0.701076 3.74868C0.55329 3.82205 0.421458 3.9239 0.313151 4.04838C0.112676 4.27899 0.00156529 4.57387 8.83844e-08 4.87943C-6.89965e-05 5.06335 0.0403625 5.24502 0.118422 5.41155C0.196482 5.57808 0.310256 5.72537 0.45166 5.84297L2.58952 7.64961V7.69177L1.93913 10.4318C1.91556 10.5346 1.90344 10.6396 1.90299 10.745C1.90025 10.9127 1.93259 11.0792 1.99792 11.2337C2.06325 11.3882 2.16014 11.5274 2.28239 11.6423C2.48423 11.8399 2.74696 11.9636 3.02792 11.9931C3.30888 12.0226 3.59156 11.9563 3.83007 11.8049L6.23893 10.3295H6.29915L8.64778 11.8049C8.88694 11.9555 9.17002 12.0208 9.451 11.9902C9.73198 11.9596 9.99435 11.8349 10.1955 11.6363C10.3177 11.5214 10.4146 11.3822 10.4799 11.2277C10.5453 11.0732 10.5776 10.9067 10.5749 10.739C10.5747 10.6355 10.5626 10.5325 10.5387 10.4318L9.8522 7.69779V7.65563L11.9901 5.849C12.1197 5.74076 12.2263 5.60765 12.3037 5.45752C12.3811 5.30739 12.4276 5.14329 12.4405 4.9749C12.4534 4.80651 12.4324 4.63724 12.3789 4.47707C12.3253 4.31691 12.2402 4.16909 12.1286 4.04236C12.0203 3.91788 11.8884 3.81603 11.7406 3.74266C11.5929 3.66928 11.432 3.62582 11.2674 3.61479L8.47916 3.41003L8.43098 3.3739L7.37109 0.784385Z" fill="#FFCE22"/>
</svg>
