<svg width="53" height="55" viewBox="0 0 53 55" fill="none" xmlns="http://www.w3.org/2000/svg">
<path d="M23.5811 1.11193C25.13 -0.370862 27.5719 -0.370861 29.1208 1.11193L32.1523 4.01398C33.0341 4.85815 34.2527 5.25411 35.4623 5.08948L39.6206 4.52352C41.7453 4.23434 43.7208 5.66966 44.1024 7.7797L44.8491 11.9093C45.0663 13.1106 45.8194 14.1472 46.8948 14.725L50.5916 16.7113C52.4804 17.7262 53.235 20.0486 52.3034 21.9799L50.4802 25.7598C49.9498 26.8593 49.9498 28.1407 50.4802 29.2402L52.3034 33.0201C53.235 34.9514 52.4804 37.2738 50.5916 38.2887L46.8948 40.275C45.8194 40.8528 45.0663 41.8894 44.8491 43.0907L44.1024 47.2203C43.7208 49.3303 41.7453 50.7657 39.6206 50.4765L35.4623 49.9105C34.2527 49.7459 33.0341 50.1419 32.1523 50.986L29.1208 53.8881C27.5719 55.3709 25.13 55.3709 23.5811 53.8881L20.5497 50.986C19.6678 50.1418 18.4492 49.7459 17.2396 49.9105L13.0813 50.4765C10.9567 50.7657 8.98111 49.3303 8.59958 47.2203L7.85287 43.0907C7.63566 41.8894 6.88249 40.8527 5.80714 40.275L2.11037 38.2887C0.221502 37.2738 -0.533093 34.9514 0.398489 33.0201L2.22173 29.2402C2.75209 28.1407 2.75209 26.8593 2.22173 25.7598L0.398489 21.9799C-0.533093 20.0486 0.221502 17.7262 2.11036 16.7113L5.80714 14.725C6.88249 14.1472 7.63566 13.1106 7.85287 11.9093L8.59958 7.7797C8.98111 5.66966 10.9567 4.23434 13.0813 4.52352L17.2396 5.08948C18.4492 5.25411 19.6678 4.85815 20.5497 4.01398L23.5811 1.11193Z" fill="#FFDF0D"/>
</svg>
