<svg width="53" height="55" viewBox="0 0 53 55" fill="none" xmlns="http://www.w3.org/2000/svg">
<path d="M23.5811 1.11193C25.13 -0.370862 27.572 -0.370861 29.1209 1.11193L32.1523 4.01398C33.0341 4.85815 34.2528 5.25411 35.4624 5.08948L39.6206 4.52352C41.7453 4.23434 43.7209 5.66966 44.1024 7.7797L44.8491 11.9093C45.0663 13.1106 45.8195 14.1472 46.8948 14.725L50.5916 16.7113C52.4805 17.7262 53.2351 20.0486 52.3035 21.9799L50.4802 25.7598C49.9499 26.8593 49.9499 28.1407 50.4802 29.2402L52.3035 33.0201C53.2351 34.9514 52.4805 37.2738 50.5916 38.2887L46.8948 40.275C45.8195 40.8528 45.0663 41.8894 44.8491 43.0907L44.1024 47.2203C43.7209 49.3303 41.7453 50.7657 39.6206 50.4765L35.4624 49.9105C34.2528 49.7459 33.0341 50.1419 32.1523 50.986L29.1209 53.8881C27.572 55.3709 25.13 55.3709 23.5811 53.8881L20.5497 50.986C19.6679 50.1418 18.4492 49.7459 17.2396 49.9105L13.0814 50.4765C10.9567 50.7657 8.98114 49.3303 8.59961 47.2203L7.8529 43.0907C7.63569 41.8894 6.88252 40.8527 5.80717 40.275L2.1104 38.2887C0.221533 37.2738 -0.533062 34.9514 0.39852 33.0201L2.22176 29.2402C2.75212 28.1407 2.75212 26.8593 2.22176 25.7598L0.39852 21.9799C-0.533063 20.0486 0.221533 17.7262 2.1104 16.7113L5.80717 14.725C6.88252 14.1472 7.63569 13.1106 7.8529 11.9093L8.59961 7.7797C8.98114 5.66966 10.9567 4.23434 13.0814 4.52352L17.2396 5.08948C18.4492 5.25411 19.6679 4.85815 20.5497 4.01398L23.5811 1.11193Z" fill="#FFDF0D"/>
</svg>
