<svg width="16" height="16" viewBox="0 0 16 16" fill="none" xmlns="http://www.w3.org/2000/svg">
<path d="M9.29264 1.88245C9.18743 1.61991 9.04665 1.40168 8.81239 1.24319C8.57813 1.0847 8.30177 1 8.01894 1C7.7361 1 7.45975 1.0847 7.22549 1.24319C6.99123 1.40168 6.8098 1.62669 6.70458 1.88923L5.51217 4.80249L5.45797 4.84314L2.32113 5.07349C2.13592 5.08591 1.95499 5.1348 1.78873 5.21735C1.62246 5.2999 1.47415 5.41448 1.3523 5.55452C1.12676 5.81397 1.00176 6.14571 1 6.48948C0.999922 6.69638 1.04541 6.90077 1.13323 7.08812C1.22105 7.27547 1.34904 7.44118 1.50813 7.57348L3.91327 9.60599V9.65342L3.18156 12.7361C3.15505 12.8516 3.14141 12.9698 3.14091 13.0884C3.13783 13.2771 3.1742 13.4643 3.24771 13.6382C3.32121 13.812 3.43021 13.9686 3.56774 14.0978C3.79481 14.3202 4.09039 14.4593 4.40648 14.4925C4.72256 14.5257 5.04059 14.4511 5.30892 14.2808L8.01894 12.6209H8.08669L10.729 14.2808C10.998 14.4502 11.3165 14.5237 11.6326 14.4893C11.9487 14.4548 12.2439 14.3145 12.4701 14.0911C12.6077 13.9618 12.7167 13.8052 12.7902 13.6314C12.8637 13.4576 12.9 13.2703 12.897 13.0816C12.8968 12.9652 12.8832 12.8493 12.8563 12.7361L12.084 9.66019V9.61277L14.4891 7.58026C14.6349 7.45848 14.7549 7.30873 14.842 7.13984C14.929 6.97094 14.9813 6.78632 14.9958 6.59688C15.0104 6.40743 14.9868 6.217 14.9265 6.03681C14.8663 5.85662 14.7705 5.69033 14.6449 5.54774C14.5231 5.40771 14.3748 5.29312 14.2085 5.21057C14.0422 5.12802 13.8613 5.07914 13.6761 5.06672L10.5393 4.83637L10.4851 4.79572L9.29264 1.88245Z" fill="#FFCE22"/>
</svg>
